<?xml version="1.0" encoding="utf-8"?>
<!-- Generator: Adobe Illustrator 15.0.0, SVG Export Plug-In . SVG Version: 6.00 Build 0)  -->
<!DOCTYPE svg PUBLIC "-//W3C//DTD SVG 1.1//EN" "http://www.w3.org/Graphics/SVG/1.1/DTD/svg11.dtd">
<svg version="1.1"
	 id="svg2" xmlns:dc="http://purl.org/dc/elements/1.1/" xmlns:cc="http://creativecommons.org/ns#" xmlns:rdf="http://www.w3.org/1999/02/22-rdf-syntax-ns#" xmlns:svg="http://www.w3.org/2000/svg"
	 xmlns="http://www.w3.org/2000/svg" xmlns:xlink="http://www.w3.org/1999/xlink" x="0px" y="0px" width="193.334px"
	 height="66.666px" viewBox="0 0 193.334 66.666" enable-background="new 0 0 193.334 66.666" xml:space="preserve">
<g id="g10" transform="matrix(1.3333333,0,0,-1.3333333,0,66.666667)">
	<g id="g12" transform="scale(0.1)">
		<path id="path14" fill="#47464B" d="M133.878,147.564c-32.205,0-61.516,24.023-61.516,50.398v54.302
			c0,29.429,30.103,57.261,61.941,57.261c20.193,0,33.677-9.28,38.965-26.777c3.281-11.052,4.175-21.46,4.175-48.435v-19.666
			c0-18.281-2.512-36.98-6.226-46.501C166.134,155.255,152.174,147.564,133.878,147.564 M133.028,321.58
			c-25.898,0-46.267-11.389-60.667-33.875v166.37c0,0-5.325-19.6-29.128-19.6H-0.002v-12.51h32.93V153.98h-32.93v-12.495h72.363
			v24.133c12.51-19.475,31.956-29.692,56.807-29.692c49.453,0,92.842,43.176,92.842,92.402
			C222.01,276.265,178.768,321.58,133.028,321.58"/>
		<path id="path16" fill="#47464B" d="M303.272,331.776c0,0-9.031-19.592-29.128-19.592h-43.235v-12.502h32.498V153.98h-32.93
			v-12.502h101.931v12.502h-29.136V331.776"/>
		<path id="path18" fill="#47464B" d="M283.988,392.471c12.283,0,22.28,10.181,22.28,22.705c0,12.07-10.21,22.288-22.28,22.288
			c-12.744,0-22.72-9.8-22.72-22.288C261.268,402.652,271.463,392.471,283.988,392.471"/>
		<path id="path20" fill="#47464B" d="M500.792,292.459c0,16.143-12.561,26.982-31.26,26.982c-21.519,0-39.324-13.213-49.556-36.064
			v44.407c0,0-9.529-15.601-27.847-15.601h-41.038v-12.502h29.026V153.98h-29.026v-12.495h106.077v12.495h-37.192v70.92
			c0,20.208,0.784,26.689,4.578,38.511c4.775,14.355,9.976,22.383,16.824,30.132c4.856,5.493,15.051,14.29,19.197,14.29l5.53-0.85
			c-4.292-4.431-6.453-9.441-6.453-14.941c0-12.173,8.826-21.006,20.991-21.006C492.318,271.036,500.792,280.052,500.792,292.459"/>
		<path id="path22" fill="#47464B" d="M567.501,453.504c0,0-4.307-19.043-29.553-19.043h-43.66v-12.495h32.93V153.98h-32.93v-12.502
			h105.703v12.502h-32.49V453.504"/>
		<path id="path24" fill="#47464B" d="M687.171,152.266c-23.965,0-32.446,9.719-32.446,37.156c0,15.176,3.208,24.126,10.422,29.07
			c11.206,7.888,38.313,12.781,70.774,12.781h0.374v-52.397C728.831,162.938,709.159,152.266,687.171,152.266 M804.256,170.233
			l-1.289-2.102c-6.306-10.239-11.982-15-17.878-15c-4.666,0-7.083,2.058-8.108,6.79c-0.82,4.951-0.82,4.951-1.67,35.911v73.542
			c0,17.842-4.885,26.353-20.896,36.409c-16.362,10.342-36.65,15.806-58.689,15.806c-38.694,0-70.173-22.083-70.173-49.226
			c0-12.942,9.214-22.705,21.423-22.705c11.917,0,20.581,8.833,20.581,20.999c0,7.463-2.336,11.609-9.609,17.058
			c-3.384,2.549-3.647,3.582-3.647,4.746c0,9.727,18.179,17.058,42.275,17.058c7.939,0,16.033-0.776,21.665-2.08
			c14.18-3.142,18.054-8.84,18.054-26.521v-38.005c-30.139,0-65.032-5.574-86.755-13.835c-21.716-7.529-38.101-27.891-38.101-47.358
			c0-26.777,25.364-44.077,64.614-44.077c27.847,0,50.398,8.892,62.944,24.624c4.819-15.198,17.578-23.774,35.837-23.774
			c16.941,0,29.802,8.086,38.218,24.06l1.216,2.292L804.256,170.233"/>
		<path id="path26" fill="#EA1F28" d="M916.763,253.604h-27.356c-26.323,0-41.426,9.8-41.426,26.88
			c0,18.157,16.765,29.883,42.708,29.883c30.168,0,48.054-14.597,51.716-42.195l0.293-2.278h11.411l-1.897,54.836h-11.55v-5.618
			c0-1.97,0-6.555-0.183-7.163c-0.015-0.007-0.168-0.044-0.278-0.088c-0.176,0.051-0.41,0.154-0.681,0.242
			c-0.396,0.161-0.864,0.337-1.04,0.366c-18.435,9.434-31.816,13.11-47.791,13.11c-36.914,0-60.762-22.676-60.762-57.759
			c0-28.279,19.431-48.801,46.223-48.801h29.502c25.217,0,38.013-10.203,38.013-30.308c0-22.654-16.868-36.716-43.997-36.716
			c-31.648,0-54.91,21.606-60.703,56.389l-0.374,2.19h-10.371v-66.812h10.781v6.035c0,8.079,2.131,8.079,2.944,8.079
			c1.304,0,4.387-0.505,10.291-3.948c20.076-10.913,28.887-13.572,44.861-13.572c41.462,0,69.324,26.133,69.324,65.039
			C966.422,233.602,947.386,253.604,916.763,253.604"/>
		<path id="path28" fill="#EA1F28" d="M1134.132,198.394c0-17.256-2.351-28.389-7.654-36.13
			c-6.299-9.067-21.855-14.692-40.605-14.692c-15.659,0-32.563,4.497-39.331,10.466c-9.148,7.947-13.22,20.662-13.22,41.221v59.429
			c0,35.449,16.216,51.255,52.551,51.255c16.165,0,30.286-4.871,38.767-13.352c7.903-7.888,9.492-14.414,9.492-38.76V198.394z
			 M1144.408,298.319c-18.025,14.941-37.969,22.83-57.678,22.83c-49.673,0-98.401-46.194-98.401-93.252
			c0-47.051,46.992-91.538,96.694-91.538c49.907,0,93.684,43.374,93.684,92.82C1178.707,256.241,1167.157,279.51,1144.408,298.319"
			/>
		<path id="path30" fill="#EA1F28" d="M1260.387,377.552c0,24.397,1.194,33.823,5.281,42.012c3.823,7.617,10.884,11.814,19.9,11.814
			c9.331,0,16.641-3.354,16.641-7.654c0-1.384,0-2.219-3.076-2.578c-11.375-2.468-17.893-9.631-17.893-19.644
			c0-11.924,8.481-20.574,20.164-20.574c12.605,0,21.416,9.514,21.416,23.123c0,22.939-15.139,38.965-36.819,38.965
			c-36.936,0-65.889-45.85-65.889-104.377v-26.462h-32.93v-12.495h32.93V153.98h-32.93v-12.502h110.837v12.502h-37.625v145.701
			h49.233v12.495h-49.233v65.376"/>
		<path id="path32" fill="#EA1F28" d="M1438.028,174.964l-0.886-2.029c-6.973-15.989-15.073-22.815-27.1-22.815
			c-7.983,0-15.352,2.644-15.352,21.768v127.793h54.302v12.502h-54.302v57.283h-11.221v-5.596c0-8.994-6.987-25.693-15.308-36.519
			c-7.573-10.349-18.721-15.168-35.09-15.168h-4.131v-12.502h25.459V178.297c0-15.645,3.508-23.496,13.909-31.194
			c9.595-6.848,20.903-10.327,33.589-10.327c23.071,0,37.09,9.675,46.882,32.358l1.223,2.834L1438.028,174.964"/>
	</g>
</g>
</svg>
