<svg xmlns="http://www.w3.org/2000/svg" version="1.1" xmlns:xlink="http://www.w3.org/1999/xlink" xmlns:svgjs="http://svgjs.dev/svgjs" width="1500" height="1687" viewBox="0 0 1500 1687"><g transform="matrix(1,0,0,1,0.000009637669336370891,0)"><svg viewBox="0 0 320 360" data-background-color="#ffffff" preserveAspectRatio="xMidYMid meet" height="1687" width="1500" xmlns="http://www.w3.org/2000/svg" xmlns:xlink="http://www.w3.org/1999/xlink"><g id="tight-bounds" transform="matrix(1,0,0,1,0.0000020560361235766322,0)"><svg viewBox="0 0 320 360" height="360" width="320"><g><svg></svg></g><g><svg viewBox="0 0 320 360" height="360" width="320"><g><path transform="translate(-15.58119,4.24857) scale(3.51065,3.51065)" d="M51.5 85.2c-0.4-0.5-0.8-0.2-0.8-0.5-2.4 0.6-6.9-1-8.8-0.8 0.4-0.6-0.6-0.5-0.6-0.9-0.4 0.6-0.8 0-1.4 0.2-0.6-1.5-3-0.4-3.3-2.3-1.4 0-1.9-0.8-3.3-1.6 0.1-0.1 0.2-0.1 0.3-0.2-0.7-0.1-0.7-0.5-1.3-0.5l0.2-0.4c-1.1-0.2-1.5-1.9-3.1-2.5-0.5-0.1-1.6-1.8-2.2-2.2-0.3-0.2-0.8-0.2-0.1-0.3-0.1-0.1-0.1-0.3 0-0.4-0.7-0.2-0.8-0.8-1.7-1.1-0.1-0.3 0.2-0.5 0-0.7-0.2-0.1-0.5 0.1-0.7 0-0.1 1.8 1.9 2 2.5 3.5-0.2-0.2-0.5-0.8-0.7-0.4-0.1 0.3 0.8 1.4 0.8 0.8-0.3 0.2-0.4-0.3-0.2-0.4 0.3 0.5 0.9 0.4 0.9 0.8-0.3 0.3-0.7-0.3-0.6 0.2 0.9 0.5 0.8 1 1.3 1.7-0.4-0.5-0.5 0.4-0.9 0-0.1-1.5-1.8-1.2-1.8-2.7-0.2-0.5-0.4-0.1-0.7-0.3 0.4-0.4-1.2-1.8-1.2-1.3-0.5-0.6-0.2-0.8-0.3-1.2-0.4-0.1-0.1 0.4-0.4 0.1 0.4-0.7-0.5-1.6-1.1-2.3l0.4-0.2c-0.7-0.4-0.8-1.2-1.3-2.1-0.6 0.9 1.2 2.9 0.9 3.3 0 0.1 0.7 0.9 0.9 1.3 0.8 1.4 1.4 3.1 2.5 3.9-0.2-0.1-0.1-0.7 0.2-0.4 0 0.3-0.2 0.6-0.2 0.9 0.6 0.6 1.1 1.1 1.7 1.7-1.3-0.8-2.6-1.6-3.5-2.8 0.5-0.1 1 0.8 1.4 0.7-1-0.8-0.7-1.1-1.1-2.1-0.4-0.3 0.1 0.4-0.3 0.5-1.3-1.2-2.3-1.9-2.9-3 0.1-0.1 0.2-0.2 0.2-0.4-0.1-0.1-0.1-0.1-0.2-0.2 0.6 0.6 0.8 1.1 1.5 1.2-0.3-0.3 0-0.4-0.4-0.7-0.2-0.4-0.5 0.2-0.7-0.1 0.2-0.3 0-0.7 0-1-0.2 0-0.4 0-0.5-0.3-0.2-0.1-0.3 0-0.4 0.2-0.1-0.1-0.1-0.3-0.2-0.4v-0.1c-0.1-0.1-0.2-0.3-0.3-0.4-0.8-2.1-1.3-4.9-2.4-6.7 0.3-1.2-0.2-3.6-0.5-4.2 0.3-0.5 0.1-2.8-0.1-3.2-0.5 0.2 0.1 1.3-0.4 1.6-0.5-2.2 0.3-4.7 0.1-6.7 0.2 0 0.4 0 0.4-0.1-0.3-0.3 0.2-0.9 0.1-1.6 0.4-0.9-0.9 1.3-0.9 2.2-0.1 0.2-0.5 0-0.4 0.5 0 0.7 0.2 2.1-0.2 3.1-0.2 0-0.2-0.2-0.4-0.1-0.1 0.5-0.2 1.1-0.3 1.6-0.1-0.2-0.2-0.5-0.2-0.6-0.5-2.5 0-5.4-0.2-7.5 0.4 0 0.4-0.6 0.7-0.8-0.1 0.8-0.3 1.8 0.2 2 0.4-3.9 1.2-8.2 3-12.4 1.3-3.1 3.2-6.2 5.5-8.7 0.2 0.3-0.1 1 0 1.3 2-2.1 3.3-4.6 5.5-6 0.1 0.5-0.9 0.9-0.9 1.3 0.9-0.9 1.2-0.6 2.2-0.9 0.3-0.4-0.4 0-0.5-0.4 0.6-0.4 1-0.9 1.4-1.2 0 0.1-0.1 0.1-0.1 0.2 1.1-0.3 1.2-0.9 2-1.1-0.1-0.1-0.3-0.2-0.6-0.1 0.2-0.1 0.5-0.3 0.8-0.4-0.1 0-0.1 0.1-0.2 0.1 0.6-0.3 0.1 0.1 0.1 0.3 0.1 0 0.2-0.1 0.2-0.1-0.6 0.4-1 0.6-1.2 1.3 0.3-0.2 0.4 0 0.8-0.3 0.4-0.2-0.1-0.5 0.2-0.7 0.3 0.2 0.7 0.1 1 0.1 0-0.2 0.1-0.4 0.3-0.5 0.1-0.2 0-0.3-0.1-0.3 0.1-0.1 0.2-0.1 0.4-0.2 0 0 0.1 0 0.1 0.1 1.7-0.8 3.6-1.5 5.4-2.1 1.1-0.1 2.5-0.1 3.1-0.8-0.2 0-0.4 0.1-0.5 0 0.1 0 0.3-0.1 0.4-0.1 0.2 0.2 0.5 0 0.2 0.4 0.1 0 0.1 0 0.2-0.1 0 0.1 0 0.1 0.1 0.2 0.1 0 0.2-0.1 0.3-0.3 0.1 0 0.2 0 0.3-0.1l-0.1 0.1c0.8-0.2 1.5-0.1 2.6-0.3 0-0.1 0-0.2 0-0.3 0.2 0 0.3-0.1 0.5-0.1v0.1c0.4-0.2 0.8 0.2 0.8 0 0.1 0 0.1 0 0.2 0 0 0.2-0.1 0.3-0.1 0.4 0.5 0 0.8 0 1-0.3-0.1-0.1-0.2-0.1-0.3-0.1 0.2 0 0.4-0.1 0.6-0.2 0.3 0.1 0.4 0.2 0.4 0.6 0.5-0.9 2.1 0.2 2.8 0 0.3 0 0.2-0.4 0.4-0.6 0.1 0 0.2 0 0.3 0 0.5 0.4 1.2 0.8 2.1 0.9-0.8-0.2 0.1-0.3 0.2-0.4-0.2 0-0.2-0.1-0.2-0.2 0.3 0 0.6 0.1 0.9 0.1 0 0.2 0.1 0.3 0.3 0.3 0.2 0 0.2-0.1 0.2-0.3 0.3 0 0.5 0 0.8 0.1-0.1 0.4 0.5 0.5 0.7 0.8-0.8-0.2-1.7-0.5-2 0 3.2 0.7 6.7 1.7 10.1 3.4 0 0 0 0 0 0.1h0.1c0.6 0.3 1.2 0.6 1.8 0.9 0.4 0.2 0.7 0.4 1.1 0.7 0 0.1 0 0.2 0.2 0.2h0.1c0.4 0.3 0.8 0.5 1.2 0.8 0.4 0.6 0.8 1.4 1.5 1.2 1.5 2.3 3.1 3.2 4.4 5.6 0.1-0.4 0.4 0.9 0.9 1-0.8-0.1 0.5 0.5-0.3 0.4 0.7 0.7 0.9 1 1 1.8-0.2-0.4-0.3-0.5-0.4-0.1-0.1 0.6 0.7-0.1 1 0.5-0.6 0-0.4 0.4-0.3 0.9 0.3-0.3 0.2-0.6 0.5-0.5 0.4 0.4-0.2 0.5-0.1 0.8 0.3-0.4 0.4-0.2 0.8 0-0.5 0.1 0.3 0.8-0.3 0.5 0.4 0.5 0.5 0.8 0.3 1.3-0.4-0.6-0.1-1-0.7-0.9 1.2 1 0.6 3.3 2 3.5-0.9 0.2 0 0.6-0.5 0.7 0.6 0.2 0.3 1 1 1.2-0.1 0.5-0.3 0.8-0.4 1.3 0.3 0.4 0.4 1.2 0.9 1.3-0.3 0.3-0.1 1.1-0.4 1.4 0.4-0.2 0.6-0.2 0.9 0.2-0.5 0.4-0.1 0.8-0.4 0.9 0.9 2.3-0.2 7 0.3 8.8-0.6-0.3-0.4 0.7-0.8 0.7 0.7 0.3 0.1 0.8 0.4 1.3-1.4 0.8 0 3-1.9 3.5 0.2 1.4-0.6 2-1.2 3.5-0.1-0.1-0.1-0.2-0.2-0.3-0.1 0.7-0.5 0.8-0.3 1.4l-0.4-0.2c0 1.1-1.7 1.7-2.1 3.4-0.1 0.5-1.6 1.8-2 2.5-0.2 0.3-0.1 0.8-0.3 0.1-0.1 0.1-0.3 0.1-0.4 0.1-0.1 0.7-0.7 0.9-0.9 1.8-0.2 0.1-0.5-0.2-0.7 0.1 0 0.2 0.2 0.5 0.1 0.7 1.8-0.1 1.8-2.2 3.2-2.9-0.1 0.3-0.7 0.6-0.3 0.8 0.3 0 1.2-1 0.7-0.9 0.3 0.2-0.3 0.4-0.4 0.3 0.5-0.4 0.3-0.9 0.7-1 0.3 0.2-0.3 0.7 0.3 0.6 0.4-0.9 0.9-1 1.5-1.5-0.4 0.4 0.5 0.5 0.1 0.9-1.5 0.3-1 2-2.5 2.2-0.4 0.3-0.1 0.4-0.2 0.7-0.5-0.3-1.6 1.4-1.2 1.3-0.5 0.5-0.8 0.3-1.2 0.4-0.1 0.4 0.4 0.1 0.2 0.4-0.7-0.3-1.6 0.7-2.2 1.4l-0.3-0.3c-0.3 0.8-1.1 0.9-2 1.5 1 0.5 2.7-1.6 3.2-1.3 0.1 0 0.9-0.8 1.2-1.1 1.3-1 2.9-1.8 3.5-2.9-0.1 0.2-0.7 0.2-0.4-0.1 0.3-0.1 0.6 0.1 0.9 0.1 1.6-2.2 3.6-4 5.1-6.6 0.1-0.1 0.2-0.3 0.3-0.5-0.2 0.6-0.5 1.1-0.7 1.7-1.6 1.1-2.2 4.3-4.1 4.8 0.1 1.1-0.9 1.4-1.4 2.7-0.3 0.4-0.5-0.3-0.8 0.2 0.3 1.4-2.5 1.3-2.4 2.6-0.2 0.1-0.5 0.2-0.7 0.4h-0.1c-0.1 0.1-0.1 0.1-0.2 0.2-0.5 0.3-0.9 0.6-1.3 0.9-1.4 0.8-3.3 1.4-4.8 2.2v-0.1c-0.4 0.2-0.9 0.1-0.8 0.5-0.3 0.2-0.6 0.4-0.9 0.6-0.1 0-0.1 0-0.2 0 0 0-0.1-0.1-0.2-0.1-0.2 0-0.2 0-0.3 0.1-1.3 0.1-3 0.7-3.5 1.1-0.5-0.3-2.8 0.2-3.2 0.4 0.2 0.3 0.8 0 1.3 0-0.3 0.1-0.6 0.2-0.7 0.4-0.1 0-0.1 0-0.2 0-0.1-0.3-0.4 0-0.5-0.1h0.1c-0.1-0.4-0.4-0.6-0.9-0.5 0 0.2 0 0.3-0.1 0.5 0.2 0 0.8-0.3 0.8 0-0.1 0-0.1 0.1 0 0.1-0.2 0.2-0.5 0.2-0.7 0.3-0.4 0-0.9 0-1.3 0-0.1-0.1-0.2-0.1-0.4-0.2-0.1 0.1-0.3 0.1-0.4 0.2-0.6 0-1.3 0.1-1.8 0.2 0-0.2 0-0.4-0.2-0.4-0.3 0.4-0.9-0.1-1.6 0.1-0.7-0.2 0.4 0.3 1.4 0.5-0.1 0.1-0.2 0.2-0.5 0.3M37.5 86.6c-1.4-1.3-4.3-1.9-4.8-2.9-0.8-0.1-2-1.6-3-1.8 0.5 0 0.1-0.3 0-0.5-0.2 0.2-0.4 0.3-0.6 0.3 0-0.8-0.8-1.3-1.5-1.8 0.5 0.3 0.9 0.5 1.5 0.6 0-0.2 0-0.4 0.2-0.4 0.7 0.7 1.5 1.4 2.4 2.1 1.2 1.1 7.4 3.9 8.5 4.4 0 0-0.2 0.4-0.1 0.4 0.5 0.3 0.9-0.3 1 0.4-1.6 0.2-2.2-0.9-3.6-0.8M83.6 63.4v0.1 0c-0.1 0 0-0.1 0-0.1M43.2 17.1c-0.1 0.1-0.2 0.1-0.2 0.1 0-0.1 0.1-0.1 0.2-0.1M41.3 17.6c0 0.1 0 0.1 0 0 0 0.1 0 0.1 0 0 0 0.1 0 0 0 0M34.7 19.7v0c0.1-0.1 0.1-0.1 0.2-0.1-0.1 0-0.2 0.1-0.2 0.1M50.7 16.4c-0.2 0-0.3 0-0.4-0.1 0.1 0 0.2 0 0.3 0h0.1c0 0 0 0 0 0.1M52.5 16.6c-0.1-0.1-0.4-0.2-0.7-0.2 0-0.1 0.1-0.2 0.1-0.2 0.1 0 0.2 0 0.3 0 0 0 0.1 0 0.1 0.1 0 0 0 0 0-0.1 0.1 0 0.1 0 0.2 0 0.1 0.2 0.2 0.3 0 0.4M55.8 16.9c-0.5 0.1-0.8-0.1-1.3-0.4 0.3 0 0.7 0.1 1 0.2 0.1 0 0.2 0.1 0.3 0.2M91.4 31.1c-0.2 0.1-0.3 0.1-0.5-0.3-1.6-3.4-4.5-8.3-8.7-12.4-4.1-4.2-9.6-7.6-14.6-9.4 0.3 0.1 0.7 0.3 0.5 0.5-4.4-1.7-8.6-2.7-12.6-3.1-10.8-1.7-22.1 0.6-30.8 6.2 0.1 0.2 0.1 0.3-0.2 0.5-3.2 2-7.7 5.5-11.3 10.1-3.6 4.6-6.4 10.4-7.6 15.6 0.1-0.3 0.2-0.8 0.4-0.6-2.6 10.3-1.9 19.1 1.7 26.7 0.2-0.2-0.5-1.2 0.1-1.1 0.4 1.1 0.9 2.3 1.5 3.4 0.7 1.6 1.5 3.7 2.6 4.2-2.8-5.5-4.7-11.8-4.9-17.4 0.4 0.8 0.3 2.5 0.9 3.2 0.2-3.8-0.7-8.9 0.6-12.5-0.3 1.9-0.5 4.5-0.3 7.1 0 1.9 0.9 7.2 1.5 7.7-0.1-0.1-0.1-0.6 0-0.6 0.3 0.6-0.4 0.9 0.1 1 0-0.2 0.1-0.2 0.2-0.2 1 2.2 2.3 5.6 3.3 7.3 1.2 2.2 2.8 4.2 4.6 6 0 0.1 0.1 0.1 0.1 0.2 0.2 0.5 0.9 1.1 1.1 1.5 0.1 0.2-0.1 0.5 0 0.7 1.5 2.8 3.7 5.6 6.4 7.8 1.7 2 4.4 4.1 7.7 5.9 3.2 1.7 6.9 3.1 10.3 3.9 2.4 0.6 5.3 0.7 7.1 1.1 2.4 0.5 6.6-0.2 8.7-0.6 12.6-1.9 25.1-10.5 31.4-22.9 6.5-12.5 6.3-27.8 0.7-39.5" fill="#ff4136" fill-rule="nonzero" stroke="none" stroke-width="1" stroke-linecap="butt" stroke-linejoin="miter" stroke-miterlimit="10" stroke-dasharray="" stroke-dashoffset="0" font-family="none" font-weight="none" font-size="none" text-anchor="none" style="mix-blend-mode: normal" data-fill-palette-color="tertiary"></path></g><g transform="matrix(1,0,0,1,80,132.28298766964429)"><svg viewBox="0 0 160 95.4340246607114" height="95.4340246607114" width="160"><g><svg viewBox="0 0 310.7174117662828 185.33133210634907" height="95.4340246607114" width="160"><g><rect width="12.905814704002562" height="185.33133210634907" x="121.72644109301098" y="0" fill="#636365" opacity="1" stroke-width="0" stroke="transparent" fill-opacity="1" class="rect-qz-0" data-fill-palette-color="primary" rx="1%" id="qz-0" data-palette-color="#636365"></rect></g><g transform="matrix(1,0,0,1,168.41711104309354,0.46102321419488135)"><svg viewBox="0 0 142.30030072318925 184.4092856779593" height="184.4092856779593" width="142.30030072318925"><g id="textblocktransform"><svg viewBox="0 0 142.30030072318925 184.4092856779593" height="184.4092856779593" width="142.30030072318925" id="textblock"><g><svg viewBox="0 0 142.30030072318925 143.11008" height="143.11008" width="142.30030072318925"><g transform="matrix(1,0,0,1,0,0)"><svg width="142.30030072318925" viewBox="-0.35 -32.3 32.216666666665 32.4" height="143.11008" data-palette-color="#636365"><path d="M5.35-32.1L5.35-32.1Q6.95-32.1 8.45-32.18 9.95-32.25 11.4-32.3L11.4-32.3Q11.5-32.1 11.48-31.53 11.45-30.95 11.3-30.9L11.3-30.9Q11.1-30.9 10.38-30.78 9.65-30.65 9-30.33 8.35-30 8.35-29.3L8.35-29.3Q8.35-28.5 9.25-26L9.25-26Q9.65-24.9 10.33-23.08 11-21.25 11.8-19.05 12.6-16.85 13.43-14.65 14.25-12.45 14.93-10.6 15.6-8.75 16.03-7.58 16.45-6.4 16.5-6.3L16.5-6.3Q16.6-6.5 17.15-7.83 17.7-9.15 18.53-11.2 19.35-13.25 20.35-15.73 21.35-18.2 22.38-20.75 23.4-23.3 24.3-25.55L24.3-25.55Q24.65-26.4 24.9-27.35 25.15-28.3 25.15-28.95L25.15-28.95Q25.15-29.75 24.48-30.15 23.8-30.55 23.03-30.7 22.25-30.85 21.95-30.85L21.95-30.85Q21.75-30.95 21.75-31.53 21.75-32.1 21.95-32.3L21.95-32.3Q23.3-32.25 24.5-32.18 25.7-32.1 27.05-32.1L27.05-32.1Q28.2-32.1 28.88-32.13 29.55-32.15 30.2-32.2 30.85-32.25 31.8-32.3L31.8-32.3Q31.9-32.1 31.85-31.5 31.8-30.9 31.7-30.9L31.7-30.9Q31.4-30.9 30.33-30.65 29.25-30.4 28.6-29.65L28.6-29.65Q28.15-29.15 27.43-27.63 26.7-26.1 26.15-24.7L26.15-24.7Q24.8-21.35 23.68-18.55 22.55-15.75 21.48-13.15 20.4-10.55 19.25-7.75 18.1-4.95 16.65-1.55L16.65-1.55Q16.25-0.6 15.78-0.25 15.3 0.1 14.8 0.1L14.8 0.1Q14.65 0.1 14.55-0.23 14.45-0.55 14.35-0.7L14.35-0.7Q12.7-5.05 11.28-8.83 9.85-12.6 8.38-16.5 6.9-20.4 5.05-25.1L5.05-25.1Q4.5-26.55 3.98-27.7 3.45-28.85 2.8-29.8L2.8-29.8Q2.55-30.2 1.9-30.45 1.25-30.7 0.63-30.8 0-30.9-0.3-30.9L-0.3-30.9Q-0.35-30.9-0.35-31.58-0.35-32.25-0.3-32.3L-0.3-32.3Q1.4-32.25 2.53-32.18 3.65-32.1 5.35-32.1Z" opacity="1" transform="matrix(1,0,0,1,0,0)" fill="#636365" class="wordmark-text-0" data-fill-palette-color="primary" id="text-0"></path></svg></g></svg></g><g transform="matrix(1,0,0,1,0,176.89493524608002)"><svg viewBox="0 0 124.37046283206742 7.5143504318792775" height="7.5143504318792775" width="124.37046283206742"><g transform="matrix(1,0,0,1,0,0)"><svg width="124.37046283206742" viewBox="3.08 -39.84 838.79 50.68000000000001" height="7.5143504318792775" data-palette-color="#89939e"><path d="M21.48-35.94L33.98 0 27.93 0 18.6-26.95 9.18 0 3.08 0 15.67-35.94 21.48-35.94ZM15.28-11.43L21.83-11.43 23.24-7.47 13.92-7.47 15.28-11.43ZM54.63-27.54L59.96-27.54 60.59-24.76 60.59 10.84 54.63 10.84 54.63-27.54ZM78.71-19.19L78.71-19.19Q79.29-16.94 79.29-14.16L79.29-14.16Q79.29-11.38 78.63-8.76 77.97-6.15 76.63-4.15 75.29-2.15 73.26-0.95 71.24 0.24 68.5 0.24L68.5 0.24Q66.79 0.24 65.25-0.15 63.72-0.54 62.59-1.17L62.59-1.17 62.59-6.25Q64.2-4.35 66.55-4.35L66.55-4.35Q68.01-4.35 69.21-5.08 70.41-5.81 71.26-7.06 72.11-8.3 72.6-10.03 73.09-11.77 73.09-13.72L73.09-13.72Q73.09-15.63 72.65-17.33 72.21-19.04 71.41-20.36 70.6-21.68 69.45-22.46 68.31-23.24 66.79-23.24L66.79-23.24Q65.52-23.24 64.47-22.73 63.42-22.22 62.59-21.29L62.59-21.29 62.59-26.46Q63.72-27.1 65.08-27.44 66.45-27.78 67.91-27.78L67.91-27.78Q69.53-27.78 71.19-27.34 72.85-26.9 74.29-25.88 75.73-24.85 76.9-23.19 78.07-21.53 78.71-19.19ZM90.91-8.3L90.91-8.3Q90.91-6.1 91.81-5.03 92.72-3.96 94.43-3.76L94.43-3.76 94.43 0.2Q94.23 0.24 93.79 0.24L93.79 0.24Q92.13 0.24 90.59-0.2 89.06-0.63 87.88-1.61 86.71-2.59 86.05-4.2 85.39-5.81 85.39-8.15L85.39-8.15Q85.39-10.4 86.35-12.04 87.3-13.67 88.79-14.72 90.28-15.77 92.18-16.28 94.08-16.8 96.04-16.8L96.04-16.8 98.19-16.8 98.19-13.33 97.11-13.33Q96.14-13.33 95.06-13.13 93.99-12.94 93.06-12.4 92.13-11.87 91.52-10.86 90.91-9.86 90.91-8.3ZM106.1-8.54L106.1-8.15Q106.1-7.76 106.14-7.01 106.19-6.25 106.34-5.47 106.49-4.69 106.8-4.05 107.12-3.42 107.66-3.22L107.66-3.22 106.1 0.05Q105.46 0.05 104.75-0.24 104.05-0.54 103.39-1.07 102.73-1.61 102.26-2.27 101.8-2.93 101.56-3.71L101.56-3.71Q101.07-2.49 99.63-1.54 98.19-0.59 96.43-0.15L96.43-0.15 96.43-3.86Q97.6-4.1 98.55-4.81 99.5-5.52 100.19-6.49L100.19-6.49 100.19-16.8Q100.19-19.19 99.94-20.61 99.7-22.02 99.11-22.68 98.53-23.34 97.67-23.51 96.82-23.68 95.65-23.68L95.65-23.68Q94.57-23.68 93.62-23.41 92.67-23.14 91.86-22.78 91.06-22.41 90.45-21.97 89.84-21.53 89.54-21.29L89.54-21.29 87.35-24.66Q87.83-25.2 88.81-25.76 89.79-26.32 91.06-26.76 92.33-27.2 93.82-27.47 95.31-27.73 96.92-27.73L96.92-27.73Q98.38-27.73 99.77-27.44 101.16-27.15 102.31-26.46 103.46-25.78 104.31-24.63 105.17-23.49 105.51-21.78L105.51-21.78Q105.85-20.07 105.97-18.33 106.1-16.6 106.1-14.89L106.1-14.89 106.1-8.54ZM114.78-19.68L114.78-19.68Q114.78-21.53 115.47-23.02 116.15-24.51 117.37-25.56 118.59-26.61 120.13-27.22 121.67-27.83 123.33-27.98L123.33-27.98 123.33-23.1Q122.06-22.85 121.35-22.07 120.64-21.29 120.64-19.87L120.64-19.87Q120.64-18.7 121.4-17.99 122.16-17.29 123.33-16.75L123.33-16.75 123.33-11.52Q122.5-11.77 121.65-12.08 120.79-12.4 119.96-12.79L119.96-12.79Q117.37-14.16 116.08-15.67 114.78-17.19 114.78-19.68ZM133-25.78L131.09-21.73Q129.78-22.41 128.29-22.75 126.8-23.1 125.33-23.19L125.33-23.19 125.33-28.03Q127.53-27.93 129.38-27.42 131.24-26.9 133-25.78L133-25.78ZM114.88-2.2L117.37-6.15Q118.35-5.47 119.69-4.88 121.03-4.3 123.09-4.3L123.09-4.3 123.33-4.3 123.33 0.24Q122.11 0.24 121.08 0.17 120.06 0.1 119.06-0.17 118.06-0.44 117.03-0.93 116.01-1.42 114.88-2.2L114.88-2.2ZM125.33-10.79L125.33-15.97Q126.8-15.48 128.31-14.89 129.82-14.31 131.07-13.43 132.31-12.55 133.12-11.25 133.93-9.96 133.93-8.01L133.93-8.01Q133.93-6.1 133.24-4.69 132.56-3.27 131.41-2.25 130.26-1.22 128.7-0.63 127.14-0.05 125.33 0.15L125.33 0.15 125.33-4.49Q126.99-4.79 127.9-5.54 128.8-6.3 128.8-7.57L128.8-7.57Q128.8-8.84 127.8-9.55 126.8-10.25 125.33-10.79L125.33-10.79ZM140.95-19.68L140.95-19.68Q140.95-21.53 141.64-23.02 142.32-24.51 143.54-25.56 144.76-26.61 146.3-27.22 147.84-27.83 149.5-27.98L149.5-27.98 149.5-23.1Q148.23-22.85 147.52-22.07 146.81-21.29 146.81-19.87L146.81-19.87Q146.81-18.7 147.57-17.99 148.33-17.29 149.5-16.75L149.5-16.75 149.5-11.52Q148.67-11.77 147.81-12.08 146.96-12.4 146.13-12.79L146.13-12.79Q143.54-14.16 142.25-15.67 140.95-17.19 140.95-19.68ZM159.17-25.78L157.26-21.73Q155.94-22.41 154.46-22.75 152.97-23.1 151.5-23.19L151.5-23.19 151.5-28.03Q153.7-27.93 155.55-27.42 157.41-26.9 159.17-25.78L159.17-25.78ZM141.05-2.2L143.54-6.15Q144.52-5.47 145.86-4.88 147.2-4.3 149.26-4.3L149.26-4.3 149.5-4.3 149.5 0.24Q148.28 0.24 147.25 0.17 146.23 0.1 145.23-0.17 144.23-0.44 143.2-0.93 142.18-1.42 141.05-2.2L141.05-2.2ZM151.5-10.79L151.5-15.97Q152.97-15.48 154.48-14.89 155.99-14.31 157.24-13.43 158.48-12.55 159.29-11.25 160.09-9.96 160.09-8.01L160.09-8.01Q160.09-6.1 159.41-4.69 158.73-3.27 157.58-2.25 156.43-1.22 154.87-0.63 153.31-0.05 151.5 0.15L151.5 0.15 151.5-4.49Q153.16-4.79 154.06-5.54 154.97-6.3 154.97-7.57L154.97-7.57Q154.97-8.84 153.97-9.55 152.97-10.25 151.5-10.79L151.5-10.79ZM173.67-27.54L173.67 0 167.71 0 167.71-27.54 173.67-27.54ZM174.2-36.33L174.2-36.33Q174.2-34.86 173.18-33.86 172.15-32.86 170.69-32.86L170.69-32.86Q169.22-32.86 168.22-33.89 167.22-34.91 167.22-36.33L167.22-36.33Q167.22-37.79 168.25-38.82 169.27-39.84 170.69-39.84L170.69-39.84Q172.15-39.84 173.18-38.82 174.2-37.79 174.2-36.33ZM194.9-23.1L194.9-27.69Q197.59-27.54 199.79-26.39 201.98-25.24 203.47-23.36 204.96-21.48 205.79-18.99 206.62-16.5 206.62-13.67L206.62-13.67Q206.62-10.84 205.77-8.37 204.91-5.91 203.4-4.08 201.89-2.25 199.69-1.12 197.49 0 194.9 0.2L194.9 0.2 194.9-4.49Q197.35-5.03 198.88-7.57 200.42-10.11 200.42-13.67L200.42-13.67Q200.42-15.48 200.06-17.07 199.69-18.65 198.96-19.92 198.22-21.19 197.2-22.02 196.17-22.85 194.9-23.1L194.9-23.1ZM181.28-13.77L181.28-13.77Q181.28-16.6 182.11-19.04 182.94-21.48 184.48-23.32 186.02-25.15 188.17-26.27 190.31-27.39 192.9-27.64L192.9-27.64 192.9-23.1Q190.46-22.56 189-20.02 187.53-17.48 187.53-13.92L187.53-13.92Q187.53-12.11 187.9-10.5 188.26-8.89 188.95-7.62 189.63-6.35 190.63-5.52 191.63-4.69 192.9-4.49L192.9-4.49 192.9 0.2Q190.22 0 188.07-1.15 185.92-2.29 184.41-4.15 182.89-6.01 182.09-8.5 181.28-10.99 181.28-13.77ZM214.29-27.54L219.56-27.54 220.19-24.76 220.19 0 214.29 0 214.29-27.54ZM234.79-24.51L234.79-24.51Q235.62-23.68 236.09-22.58 236.55-21.48 236.77-20.29 236.99-19.09 237.04-17.87 237.09-16.65 237.09-15.48L237.09-15.48 237.09-0.98 237.09 0 231.13 0 231.13-14.99Q231.13-16.65 230.99-18.16 230.84-19.68 230.3-20.85 229.77-22.02 228.84-22.68 227.91-23.34 226.25-23.34L226.25-23.34Q225.57-23.34 224.42-23.12 223.27-22.9 222.2-22.41L222.2-22.41 222.2-26.17Q223.52-26.86 225.05-27.34 226.59-27.83 228.06-27.83L228.06-27.83Q230.25-27.83 231.77-26.93 233.28-26.03 234.79-24.51ZM250.03-8.3L250.03-8.3Q250.03-6.1 250.93-5.03 251.83-3.96 253.54-3.76L253.54-3.76 253.54 0.2Q253.35 0.24 252.91 0.24L252.91 0.24Q251.25 0.24 249.71-0.2 248.17-0.63 247-1.61 245.83-2.59 245.17-4.2 244.51-5.81 244.51-8.15L244.51-8.15Q244.51-10.4 245.46-12.04 246.41-13.67 247.9-14.72 249.39-15.77 251.3-16.28 253.2-16.8 255.15-16.8L255.15-16.8 257.3-16.8 257.3-13.33 256.23-13.33Q255.25-13.33 254.18-13.13 253.1-12.94 252.17-12.4 251.25-11.87 250.64-10.86 250.03-9.86 250.03-8.3ZM265.21-8.54L265.21-8.15Q265.21-7.76 265.26-7.01 265.31-6.25 265.46-5.47 265.6-4.69 265.92-4.05 266.24-3.42 266.77-3.22L266.77-3.22 265.21 0.05Q264.58 0.05 263.87-0.24 263.16-0.54 262.5-1.07 261.84-1.61 261.38-2.27 260.92-2.93 260.67-3.71L260.67-3.71Q260.18-2.49 258.74-1.54 257.3-0.59 255.54-0.15L255.54-0.15 255.54-3.86Q256.72-4.1 257.67-4.81 258.62-5.52 259.3-6.49L259.3-6.49 259.3-16.8Q259.3-19.19 259.06-20.61 258.82-22.02 258.23-22.68 257.64-23.34 256.79-23.51 255.93-23.68 254.76-23.68L254.76-23.68Q253.69-23.68 252.74-23.41 251.78-23.14 250.98-22.78 250.17-22.41 249.56-21.97 248.95-21.53 248.66-21.29L248.66-21.29 246.46-24.66Q246.95-25.2 247.93-25.76 248.9-26.32 250.17-26.76 251.44-27.2 252.93-27.47 254.42-27.73 256.03-27.73L256.03-27.73Q257.5-27.73 258.89-27.44 260.28-27.15 261.43-26.46 262.58-25.78 263.43-24.63 264.28-23.49 264.63-21.78L264.63-21.78Q264.97-20.07 265.09-18.33 265.21-16.6 265.21-14.89L265.21-14.89 265.21-8.54ZM282.4-23.54L282.4-8.35Q282.4-6.69 282.84-5.76 283.28-4.83 284.08-4.35 284.89-3.86 285.89-3.74 286.89-3.61 288.01-3.61L288.01-3.61 288.01 0Q287.38 0.1 286.74 0.15L286.74 0.15Q286.21 0.2 285.45 0.22 284.69 0.24 283.96 0.24L283.96 0.24Q283.23 0.24 282.47 0.2 281.71 0.15 281.18 0.05L281.18 0.05Q279.52-0.24 278.59-1.39 277.66-2.54 277.2-3.93 276.73-5.32 276.61-6.64 276.49-7.96 276.49-8.69L276.49-8.69 276.49-23.54 272.88-23.54 272.88-27.54 276.49-27.54 276.49-35.35 282.4-35.35 282.4-27.54 286.79-27.54 286.79-23.54 282.4-23.54ZM307.74-23.19L307.74-27.78Q310.37-27.54 312.5-26.37 314.62-25.2 316.13-23.34 317.65-21.48 318.45-19.09 319.26-16.7 319.26-14.11L319.26-14.11Q319.26-12.94 319.11-11.77L319.11-11.77 302.37-11.77 302.37-16.06 313.64-16.06Q313.64-17.33 313.23-18.51 312.81-19.68 312.01-20.68 311.2-21.68 310.13-22.36 309.05-23.05 307.74-23.19L307.74-23.19ZM307.54-4.59L307.54-4.59Q308.08-4.59 308.88-4.71 309.69-4.83 310.59-5.15 311.5-5.47 312.4-5.96 313.3-6.45 313.99-7.13L313.99-7.13 316.13-3.86Q314.52-1.86 312.37-0.83 310.23 0.2 306.91 0.2L306.91 0.2Q304.22 0.2 301.88-0.9 299.53-2 297.87-3.91 296.21-5.81 295.24-8.35 294.26-10.89 294.26-13.82L294.26-13.82Q294.26-16.6 295.16-19.09 296.07-21.58 297.63-23.46 299.19-25.34 301.27-26.51 303.34-27.69 305.73-27.83L305.73-27.83 305.73-23.14Q303.93-22.8 302.76-21.68 301.58-20.56 300.92-19.12 300.27-17.68 300-16.16 299.73-14.65 299.73-13.57L299.73-13.57Q299.73-11.67 300.19-10.03 300.66-8.4 301.63-7.2 302.61-6.01 304.05-5.3 305.49-4.59 307.54-4.59ZM340.1-19.68L340.1-19.68Q340.1-21.53 340.79-23.02 341.47-24.51 342.69-25.56 343.91-26.61 345.45-27.22 346.99-27.83 348.65-27.98L348.65-27.98 348.65-23.1Q347.38-22.85 346.67-22.07 345.96-21.29 345.96-19.87L345.96-19.87Q345.96-18.7 346.72-17.99 347.48-17.29 348.65-16.75L348.65-16.75 348.65-11.52Q347.82-11.77 346.96-12.08 346.11-12.4 345.28-12.79L345.28-12.79Q342.69-14.16 341.4-15.67 340.1-17.19 340.1-19.68ZM358.32-25.78L356.41-21.73Q355.09-22.41 353.61-22.75 352.12-23.1 350.65-23.19L350.65-23.19 350.65-28.03Q352.85-27.93 354.7-27.42 356.56-26.9 358.32-25.78L358.32-25.78ZM340.2-2.2L342.69-6.15Q343.67-5.47 345.01-4.88 346.35-4.3 348.41-4.3L348.41-4.3 348.65-4.3 348.65 0.24Q347.43 0.24 346.4 0.17 345.38 0.1 344.38-0.17 343.38-0.44 342.35-0.93 341.32-1.42 340.2-2.2L340.2-2.2ZM350.65-10.79L350.65-15.97Q352.12-15.48 353.63-14.89 355.14-14.31 356.39-13.43 357.63-12.55 358.44-11.25 359.24-9.96 359.24-8.01L359.24-8.01Q359.24-6.1 358.56-4.69 357.88-3.27 356.73-2.25 355.58-1.22 354.02-0.63 352.46-0.05 350.65 0.15L350.65 0.15 350.65-4.49Q352.31-4.79 353.21-5.54 354.12-6.3 354.12-7.57L354.12-7.57Q354.12-8.84 353.12-9.55 352.12-10.25 350.65-10.79L350.65-10.79ZM379.85-23.1L379.85-27.69Q382.53-27.54 384.73-26.39 386.93-25.24 388.42-23.36 389.91-21.48 390.74-18.99 391.57-16.5 391.57-13.67L391.57-13.67Q391.57-10.84 390.71-8.37 389.86-5.91 388.34-4.08 386.83-2.25 384.63-1.12 382.44 0 379.85 0.2L379.85 0.2 379.85-4.49Q382.29-5.03 383.83-7.57 385.37-10.11 385.37-13.67L385.37-13.67Q385.37-15.48 385-17.07 384.63-18.65 383.9-19.92 383.17-21.19 382.14-22.02 381.12-22.85 379.85-23.1L379.85-23.1ZM366.22-13.77L366.22-13.77Q366.22-16.6 367.05-19.04 367.88-21.48 369.42-23.32 370.96-25.15 373.11-26.27 375.26-27.39 377.85-27.64L377.85-27.64 377.85-23.1Q375.4-22.56 373.94-20.02 372.47-17.48 372.47-13.92L372.47-13.92Q372.47-12.11 372.84-10.5 373.21-8.89 373.89-7.62 374.57-6.35 375.58-5.52 376.58-4.69 377.85-4.49L377.85-4.49 377.85 0.2Q375.16 0 373.01-1.15 370.86-2.29 369.35-4.15 367.84-6.01 367.03-8.5 366.22-10.99 366.22-13.77ZM411-33.84L411-33.84Q410.02-33.84 409.36-33.35 408.7-32.86 408.26-31.98 407.82-31.1 407.63-29.96 407.43-28.81 407.38-27.54L407.38-27.54 411.63-27.54 411.63-23.54 407.29-23.54 407.29-21.19 407.29 0 401.33 0 401.33-21.19 401.33-23.54 397.72-23.54 397.72-27.54 401.43-27.54Q401.57-29.64 402.01-31.57 402.45-33.5 403.4-34.94 404.36-36.38 405.99-37.26 407.63-38.13 410.12-38.13L410.12-38.13Q410.85-38.13 411.68-38.01 412.51-37.89 413.32-37.72 414.12-37.55 414.81-37.3 415.49-37.06 415.88-36.77L415.88-36.77 413.98-33.25Q413.29-33.64 412.34-33.74 411.39-33.84 411-33.84ZM430.09-23.54L430.09-8.35Q430.09-6.69 430.53-5.76 430.97-4.83 431.77-4.35 432.58-3.86 433.58-3.74 434.58-3.61 435.7-3.61L435.7-3.61 435.7 0Q435.07 0.1 434.43 0.15L434.43 0.15Q433.9 0.2 433.14 0.22 432.38 0.24 431.65 0.24L431.65 0.24Q430.92 0.24 430.16 0.2 429.4 0.15 428.87 0.05L428.87 0.05Q427.21-0.24 426.28-1.39 425.35-2.54 424.89-3.93 424.42-5.32 424.3-6.64 424.18-7.96 424.18-8.69L424.18-8.69 424.18-23.54 420.57-23.54 420.57-27.54 424.18-27.54 424.18-35.35 430.09-35.35 430.09-27.54 434.48-27.54 434.48-23.54 430.09-23.54ZM469-4.59L474.13-27.54 480.52-27.54 472.76 0.2 465.14 0.2 462.21-11.18 462.21-27.54 464.36-27.54 469-4.59ZM448.3-27.54L452.84-4.59 457.97-27.54 460.21-27.54 460.21-12.65 456.7 0.2 449.03 0.2 441.95-27.54 448.3-27.54ZM492.19-8.3L492.19-8.3Q492.19-6.1 493.09-5.03 494-3.96 495.71-3.76L495.71-3.76 495.71 0.2Q495.51 0.24 495.07 0.24L495.07 0.24Q493.41 0.24 491.87-0.2 490.34-0.63 489.16-1.61 487.99-2.59 487.33-4.2 486.67-5.81 486.67-8.15L486.67-8.15Q486.67-10.4 487.63-12.04 488.58-13.67 490.07-14.72 491.56-15.77 493.46-16.28 495.37-16.8 497.32-16.8L497.32-16.8 499.47-16.8 499.47-13.33 498.39-13.33Q497.42-13.33 496.34-13.13 495.27-12.94 494.34-12.4 493.41-11.87 492.8-10.86 492.19-9.86 492.19-8.3ZM507.38-8.54L507.38-8.15Q507.38-7.76 507.43-7.01 507.47-6.25 507.62-5.47 507.77-4.69 508.08-4.05 508.4-3.42 508.94-3.22L508.94-3.22 507.38 0.05Q506.74 0.05 506.03-0.24 505.33-0.54 504.67-1.07 504.01-1.61 503.54-2.27 503.08-2.93 502.84-3.71L502.84-3.71Q502.35-2.49 500.91-1.54 499.47-0.59 497.71-0.15L497.71-0.15 497.71-3.86Q498.88-4.1 499.83-4.81 500.79-5.52 501.47-6.49L501.47-6.49 501.47-16.8Q501.47-19.19 501.22-20.61 500.98-22.02 500.39-22.68 499.81-23.34 498.95-23.51 498.1-23.68 496.93-23.68L496.93-23.68Q495.85-23.68 494.9-23.41 493.95-23.14 493.14-22.78 492.34-22.41 491.73-21.97 491.12-21.53 490.82-21.29L490.82-21.29 488.63-24.66Q489.12-25.2 490.09-25.76 491.07-26.32 492.34-26.76 493.61-27.2 495.1-27.47 496.59-27.73 498.2-27.73L498.2-27.73Q499.66-27.73 501.05-27.44 502.45-27.15 503.59-26.46 504.74-25.78 505.59-24.63 506.45-23.49 506.79-21.78L506.79-21.78Q507.13-20.07 507.25-18.33 507.38-16.6 507.38-14.89L507.38-14.89 507.38-8.54ZM516.7-27.54L521.97-27.54 522.61-24.71 522.61-9.77 522.61-9.67 522.61 0 516.7 0 516.7-27.54ZM524.61-21.34L524.61-26.32Q525.83-27 527.54-27.37 529.25-27.73 532.18-27.73L532.18-27.73 532.18-21.58Q530.81-21.97 528.86-22.02L528.86-22.02Q527.78-22.02 526.69-21.85 525.59-21.68 524.61-21.34L524.61-21.34ZM551.27-23.19L551.27-27.78Q553.91-27.54 556.03-26.37 558.15-25.2 559.67-23.34 561.18-21.48 561.99-19.09 562.79-16.7 562.79-14.11L562.79-14.11Q562.79-12.94 562.65-11.77L562.65-11.77 545.9-11.77 545.9-16.06 557.18-16.06Q557.18-17.33 556.76-18.51 556.35-19.68 555.54-20.68 554.74-21.68 553.66-22.36 552.59-23.05 551.27-23.19L551.27-23.19ZM551.07-4.59L551.07-4.59Q551.61-4.59 552.42-4.71 553.22-4.83 554.12-5.15 555.03-5.47 555.93-5.96 556.83-6.45 557.52-7.13L557.52-7.13 559.67-3.86Q558.06-1.86 555.91-0.83 553.76 0.2 550.44 0.2L550.44 0.2Q547.75 0.2 545.41-0.9 543.07-2 541.41-3.91 539.74-5.81 538.77-8.35 537.79-10.89 537.79-13.82L537.79-13.82Q537.79-16.6 538.7-19.09 539.6-21.58 541.16-23.46 542.72-25.34 544.8-26.51 546.87-27.69 549.27-27.83L549.27-27.83 549.27-23.14Q547.46-22.8 546.29-21.68 545.12-20.56 544.46-19.12 543.8-17.68 543.53-16.16 543.26-14.65 543.26-13.57L543.26-13.57Q543.26-11.67 543.72-10.03 544.19-8.4 545.16-7.2 546.14-6.01 547.58-5.3 549.02-4.59 551.07-4.59ZM601.26-37.94L607.22-37.94 607.22 0 601.61 0 601.26-3.27 601.26-37.94ZM582.51-14.16L582.51-14.16Q582.51-17.97 583.56-20.56 584.61-23.14 586.27-24.76 587.93-26.37 589.96-27.08 591.99-27.78 593.94-27.78L593.94-27.78Q595.45-27.78 596.82-27.44 598.19-27.1 599.26-26.46L599.26-26.46 599.26-21.29Q598.43-22.17 597.41-22.71 596.38-23.24 595.11-23.24L595.11-23.24Q593.6-23.24 592.43-22.49 591.25-21.73 590.45-20.41 589.64-19.09 589.2-17.38 588.76-15.67 588.76-13.72L588.76-13.72Q588.76-11.77 589.25-10.08 589.74-8.4 590.57-7.13 591.4-5.86 592.6-5.13 593.79-4.39 595.21-4.39L595.21-4.39Q597.6-4.39 599.26-6.3L599.26-6.3 599.26-1.22Q598.09-0.59 596.55-0.17 595.01 0.24 593.3 0.24L593.3 0.24Q591.35 0.24 589.47-0.46 587.59-1.17 586.13-2.78L586.13-2.78Q584.27-4.88 583.39-7.98 582.51-11.08 582.51-14.16ZM628.36-23.19L628.36-27.78Q631-27.54 633.12-26.37 635.25-25.2 636.76-23.34 638.27-21.48 639.08-19.09 639.88-16.7 639.88-14.11L639.88-14.11Q639.88-12.94 639.74-11.77L639.74-11.77 622.99-11.77 622.99-16.06 634.27-16.06Q634.27-17.33 633.85-18.51 633.44-19.68 632.63-20.68 631.83-21.68 630.75-22.36 629.68-23.05 628.36-23.19L628.36-23.19ZM628.17-4.59L628.17-4.59Q628.7-4.59 629.51-4.71 630.31-4.83 631.22-5.15 632.12-5.47 633.02-5.96 633.93-6.45 634.61-7.13L634.61-7.13 636.76-3.86Q635.15-1.86 633-0.83 630.85 0.2 627.53 0.2L627.53 0.2Q624.84 0.2 622.5-0.9 620.16-2 618.5-3.91 616.84-5.81 615.86-8.35 614.88-10.89 614.88-13.82L614.88-13.82Q614.88-16.6 615.79-19.09 616.69-21.58 618.25-23.46 619.82-25.34 621.89-26.51 623.97-27.69 626.36-27.83L626.36-27.83 626.36-23.14Q624.55-22.8 623.38-21.68 622.21-20.56 621.55-19.12 620.89-17.68 620.62-16.16 620.35-14.65 620.35-13.57L620.35-13.57Q620.35-11.67 620.82-10.03 621.28-8.4 622.26-7.2 623.23-6.01 624.67-5.3 626.11-4.59 628.17-4.59ZM656.34 0.2L646.67-27.54 653.36-27.54 659.17-7.96 659.17 0.2 656.34 0.2ZM661.17-7.96L667.03-27.54 673.67-27.54 664 0.2 661.17 0.2 661.17-7.96ZM693.05-23.19L693.05-27.78Q695.69-27.54 697.81-26.37 699.94-25.2 701.45-23.34 702.96-21.48 703.77-19.09 704.58-16.7 704.58-14.11L704.58-14.11Q704.58-12.94 704.43-11.77L704.43-11.77 687.68-11.77 687.68-16.06 698.96-16.06Q698.96-17.33 698.55-18.51 698.13-19.68 697.33-20.68 696.52-21.68 695.45-22.36 694.37-23.05 693.05-23.19L693.05-23.19ZM692.86-4.59L692.86-4.59Q693.39-4.59 694.2-4.71 695.01-4.83 695.91-5.15 696.81-5.47 697.72-5.96 698.62-6.45 699.3-7.13L699.3-7.13 701.45-3.86Q699.84-1.86 697.69-0.83 695.54 0.2 692.22 0.2L692.22 0.2Q689.54 0.2 687.19-0.9 684.85-2 683.19-3.91 681.53-5.81 680.55-8.35 679.58-10.89 679.58-13.82L679.58-13.82Q679.58-16.6 680.48-19.09 681.38-21.58 682.95-23.46 684.51-25.34 686.58-26.51 688.66-27.69 691.05-27.83L691.05-27.83 691.05-23.14Q689.24-22.8 688.07-21.68 686.9-20.56 686.24-19.12 685.58-17.68 685.31-16.16 685.04-14.65 685.04-13.57L685.04-13.57Q685.04-11.67 685.51-10.03 685.97-8.4 686.95-7.2 687.93-6.01 689.37-5.3 690.81-4.59 692.86-4.59ZM718.54-37.94L718.54-8.4Q718.54-6.74 718.98-5.79 719.42-4.83 720.2-4.37 720.98-3.91 721.98-3.76 722.98-3.61 724.15-3.61L724.15-3.61 724.15 0Q723.52 0.1 722.84 0.15L722.84 0.15Q722.3 0.2 721.57 0.22 720.83 0.24 720.1 0.24L720.1 0.24Q719.37 0.24 718.64 0.2 717.9 0.15 717.32 0.05L717.32 0.05Q715.66-0.29 714.73-1.42 713.8-2.54 713.31-3.93 712.83-5.32 712.7-6.64 712.58-7.96 712.58-8.69L712.58-8.69 712.58-9.28 712.58-37.94 718.54-37.94ZM743.34-23.1L743.34-27.69Q746.03-27.54 748.22-26.39 750.42-25.24 751.91-23.36 753.4-21.48 754.23-18.99 755.06-16.5 755.06-13.67L755.06-13.67Q755.06-10.84 754.2-8.37 753.35-5.91 751.84-4.08 750.32-2.25 748.13-1.12 745.93 0 743.34 0.2L743.34 0.2 743.34-4.49Q745.78-5.03 747.32-7.57 748.86-10.11 748.86-13.67L748.86-13.67Q748.86-15.48 748.49-17.07 748.13-18.65 747.39-19.92 746.66-21.19 745.64-22.02 744.61-22.85 743.34-23.1L743.34-23.1ZM729.72-13.77L729.72-13.77Q729.72-16.6 730.55-19.04 731.38-21.48 732.92-23.32 734.45-25.15 736.6-26.27 738.75-27.39 741.34-27.64L741.34-27.64 741.34-23.1Q738.9-22.56 737.43-20.02 735.97-17.48 735.97-13.92L735.97-13.92Q735.97-12.11 736.33-10.5 736.7-8.89 737.38-7.62 738.07-6.35 739.07-5.52 740.07-4.69 741.34-4.49L741.34-4.49 741.34 0.2Q738.65 0 736.5-1.15 734.36-2.29 732.84-4.15 731.33-6.01 730.52-8.5 729.72-10.99 729.72-13.77ZM762.72-27.54L768.05-27.54 768.68-24.76 768.68 10.84 762.72 10.84 762.72-27.54ZM786.8-19.19L786.8-19.19Q787.38-16.94 787.38-14.16L787.38-14.16Q787.38-11.38 786.72-8.76 786.06-6.15 784.72-4.15 783.38-2.15 781.35-0.95 779.32 0.24 776.59 0.24L776.59 0.24Q774.88 0.24 773.34-0.15 771.8-0.54 770.68-1.17L770.68-1.17 770.68-6.25Q772.29-4.35 774.64-4.35L774.64-4.35Q776.1-4.35 777.3-5.08 778.49-5.81 779.35-7.06 780.2-8.3 780.69-10.03 781.18-11.77 781.18-13.72L781.18-13.72Q781.18-15.63 780.74-17.33 780.3-19.04 779.5-20.36 778.69-21.68 777.54-22.46 776.39-23.24 774.88-23.24L774.88-23.24Q773.61-23.24 772.56-22.73 771.51-22.22 770.68-21.29L770.68-21.29 770.68-26.46Q771.8-27.1 773.17-27.44 774.54-27.78 776-27.78L776-27.78Q777.62-27.78 779.28-27.34 780.94-26.9 782.38-25.88 783.82-24.85 784.99-23.19 786.16-21.53 786.8-19.19ZM806.76-23.19L806.76-27.78Q809.4-27.54 811.52-26.37 813.65-25.2 815.16-23.34 816.68-21.48 817.48-19.09 818.29-16.7 818.29-14.11L818.29-14.11Q818.29-12.94 818.14-11.77L818.14-11.77 801.39-11.77 801.39-16.06 812.67-16.06Q812.67-17.33 812.26-18.51 811.84-19.68 811.04-20.68 810.23-21.68 809.16-22.36 808.08-23.05 806.76-23.19L806.76-23.19ZM806.57-4.59L806.57-4.59Q807.11-4.59 807.91-4.71 808.72-4.83 809.62-5.15 810.52-5.47 811.43-5.96 812.33-6.45 813.01-7.13L813.01-7.13 815.16-3.86Q813.55-1.86 811.4-0.83 809.25 0.2 805.93 0.2L805.93 0.2Q803.25 0.2 800.9-0.9 798.56-2 796.9-3.91 795.24-5.81 794.26-8.35 793.29-10.89 793.29-13.82L793.29-13.82Q793.29-16.6 794.19-19.09 795.09-21.58 796.66-23.46 798.22-25.34 800.29-26.51 802.37-27.69 804.76-27.83L804.76-27.83 804.76-23.14Q802.95-22.8 801.78-21.68 800.61-20.56 799.95-19.12 799.29-17.68 799.02-16.16 798.76-14.65 798.76-13.57L798.76-13.57Q798.76-11.67 799.22-10.03 799.68-8.4 800.66-7.2 801.64-6.01 803.08-5.3 804.52-4.59 806.57-4.59ZM826.39-27.54L831.66-27.54 832.3-24.71 832.3-9.77 832.3-9.67 832.3 0 826.39 0 826.39-27.54ZM834.3-21.34L834.3-26.32Q835.52-27 837.23-27.37 838.94-27.73 841.87-27.73L841.87-27.73 841.87-21.58Q840.5-21.97 838.55-22.02L838.55-22.02Q837.47-22.02 836.38-21.85 835.28-21.68 834.3-21.34L834.3-21.34Z" opacity="1" transform="matrix(1,0,0,1,0,0)" fill="#89939e" class="slogan-text-1" data-fill-palette-color="secondary" id="text-1"></path></svg></g></svg></g></svg></g></svg></g><g transform="matrix(1,0,0,1,0,44.06541316400032)"><svg viewBox="0 0 87.94158584693096 97.20050577834843" height="97.20050577834843" width="87.94158584693096"><g><svg xmlns="http://www.w3.org/2000/svg" xmlns:xlink="http://www.w3.org/1999/xlink" version="1.1" x="0" y="0" viewBox="9.286711308756878 5 81.42697059902345 90" enable-background="new 0 0 100 100" xml:space="preserve" height="97.20050577834843" width="87.94158584693096" class="icon-icon-0" data-fill-palette-color="accent" id="icon-0"><g fill="#89939e" data-fill-palette-color="accent"><path fill="none" d="M72.534 90.829H27.466c-0.827 0-1.499 0.673-1.499 1.499 0 0.401 0.156 0.776 0.439 1.059 0.283 0.283 0.661 0.439 1.06 0.439h45.068c0.826 0 1.498-0.672 1.498-1.499C74.033 91.502 73.361 90.829 72.534 90.829z"></path><path fill="none" d="M71.514 82.768l-1.296 6.889h2.317c1.103 0 2.052 0.673 2.459 1.63 0.245-0.032 0.494-0.062 0.734-0.098 1.239-2.675-0.177-5.097-0.866-6.034C73.791 83.697 72.427 82.871 71.514 82.768z"></path><path fill="none" d="M29.783 89.657l-1.297-6.891c-0.915 0.094-2.291 0.919-3.372 2.388-0.687 0.937-2.104 3.358-0.867 6.032 0.247 0.037 0.505 0.068 0.759 0.101 0.407-0.957 1.356-1.63 2.46-1.63H29.783z"></path><path fill="none" d="M47.555 28.979c0.178-0.613-0.042-1.32-0.619-1.989-0.637-0.738-1.61-1.326-2.74-1.653-0.6-0.174-1.2-0.262-1.785-0.262-1.55 0-2.728 0.608-3 1.549-0.386 1.336 1.153 3.004 3.361 3.643 0.598 0.173 1.199 0.26 1.784 0.26C46.106 30.527 47.284 29.919 47.555 28.979z"></path><polygon fill="none" points="69.025,89.657 74.669,59.651 50.001,59.651 25.332,59.651 30.976,89.657  "></polygon><path fill="none" d="M80.765 59.312l0.531-0.247L80.76 59.3c-3.926-8.898-6.925-9.848-18.086-13.382l-1.962-0.623c-0.931 0.661-1.56 1.015-1.588 1.03l-0.565-1.028c0.117-0.064 11.616-6.536 9.108-16.746C64.572 15.947 55.629 6.173 50.001 6.173c-5.629 0-14.572 9.774-17.668 22.378-2.511 10.225 8.992 16.682 9.108 16.746l-0.565 1.028c-0.028-0.015-0.67-0.377-1.614-1.049l-1.863 0.593C26.19 49.421 23.178 50.376 19.242 59.3l-0.537-0.236 0.531 0.247-7.438 15.985c-1.665 3.87-1.775 7.104-0.328 9.612 1.69 2.929 5.619 4.999 11.437 6.056-0.676-2.101-0.239-4.46 1.262-6.503 1.179-1.605 2.759-2.672 4.1-2.844l-0.306-1.631-7.256-2.855 0.429-1.092 2.168 0.854-3.58-3.199 0.781-0.875 7.343 6.561-3.933-20.903h26.083 26.083l-3.932 20.903 7.343-6.561 0.781 0.875-3.58 3.199 2.166-0.854 0.43 1.092-7.254 2.855-0.308 1.635c1.337 0.181 2.906 1.244 4.078 2.839 1.502 2.044 1.938 4.405 1.26 6.508 5.832-1.055 9.77-3.129 11.462-6.062 1.447-2.508 1.337-5.741-0.329-9.611L80.765 59.312zM34.824 29.449h-1.173c0-8.616 7.334-15.625 16.349-15.625 9.015 0 16.349 7.009 16.349 15.625h-1.173c0-7.969-6.808-14.452-15.176-14.452C41.632 14.997 34.824 21.48 34.824 29.449zM38.283 26.299c0.422-1.456 2.042-2.397 4.127-2.397 0.696 0 1.406 0.105 2.111 0.308 1.346 0.39 2.52 1.104 3.304 2.015 0.844 0.98 1.149 2.074 0.857 3.079-0.421 1.456-2.04 2.396-4.127 2.396-0.695 0-1.405-0.102-2.11-0.306C39.53 30.55 37.702 28.313 38.283 26.299zM50.001 56.013l-5.998-5.547 0.796-0.861 5.202 4.811 5.201-4.811 0.796 0.861L50.001 56.013zM55.446 31.7c-2.087 0-3.707-0.94-4.127-2.396-0.291-1.006 0.014-2.099 0.858-3.079 0.784-0.91 1.957-1.625 3.304-2.015 0.704-0.203 1.415-0.308 2.111-0.308 2.086 0 3.705 0.941 4.126 2.397 0.291 1.005-0.013 2.099-0.857 3.079-0.784 0.91-1.957 1.625-3.303 2.015C56.852 31.597 56.142 31.7 55.446 31.7z"></path><path fill="none" d="M60.59 26.624c-0.272-0.941-1.449-1.549-2.999-1.549-0.586 0-1.187 0.088-1.785 0.262-1.131 0.326-2.105 0.914-2.742 1.653-0.577 0.67-0.797 1.377-0.62 1.989 0.271 0.94 1.449 1.548 3.001 1.548 0.585 0 1.185-0.087 1.784-0.26 1.13-0.327 2.103-0.915 2.74-1.654C60.548 27.943 60.767 27.237 60.59 26.624z"></path><path d="M50.001 14.997c8.368 0 15.176 6.483 15.176 14.452h1.173c0-8.616-7.334-15.625-16.349-15.625-9.015 0-16.349 7.009-16.349 15.625h1.173C34.824 21.48 41.632 14.997 50.001 14.997z" fill="#89939e" data-fill-palette-color="accent"></path><path d="M48.682 29.304c0.291-1.006-0.013-2.099-0.857-3.079-0.784-0.91-1.957-1.625-3.304-2.015-0.705-0.203-1.415-0.308-2.111-0.308-2.085 0-3.705 0.941-4.127 2.397-0.581 2.014 1.247 4.251 4.162 5.095 0.705 0.204 1.415 0.306 2.11 0.306C46.642 31.7 48.261 30.76 48.682 29.304zM39.41 26.624c0.272-0.941 1.45-1.549 3-1.549 0.586 0 1.186 0.088 1.785 0.262 1.131 0.326 2.104 0.914 2.74 1.653 0.577 0.67 0.797 1.377 0.619 1.989-0.272 0.94-1.45 1.548-3 1.548-0.585 0-1.186-0.087-1.784-0.26C40.564 29.628 39.024 27.96 39.41 26.624z" fill="#89939e" data-fill-palette-color="accent"></path><path d="M60.86 29.378c0.844-0.98 1.148-2.074 0.857-3.079-0.42-1.456-2.04-2.397-4.126-2.397-0.696 0-1.407 0.105-2.111 0.308-1.347 0.39-2.52 1.104-3.304 2.015-0.844 0.98-1.149 2.074-0.858 3.079 0.42 1.456 2.04 2.396 4.127 2.396 0.696 0 1.406-0.102 2.111-0.306C58.903 31.003 60.076 30.288 60.86 29.378zM57.231 30.267c-0.599 0.173-1.199 0.26-1.784 0.26-1.552 0-2.73-0.608-3.001-1.548-0.177-0.613 0.042-1.32 0.62-1.989 0.637-0.738 1.61-1.326 2.742-1.653 0.598-0.174 1.199-0.262 1.785-0.262 1.55 0 2.727 0.608 2.999 1.549 0.177 0.613-0.043 1.319-0.619 1.989C59.334 29.352 58.361 29.94 57.231 30.267z" fill="#89939e" data-fill-palette-color="accent"></path><path d="M89.279 74.833l-0.539 0.233 0.531-0.247-7.439-15.991c-4.14-9.383-7.54-10.46-18.804-14.027l-1.167-0.371c3.484-2.771 8.838-8.451 6.944-16.158C65.535 14.952 56.18 5 50.001 5c-6.18 0-15.535 9.952-18.806 23.271-1.889 7.69 3.436 13.361 6.921 16.14l-1.071 0.34c-11.311 3.585-14.726 4.667-18.876 14.076l-7.44 15.991 0.531 0.247-0.539-0.233c-1.819 4.229-1.908 7.816-0.266 10.662 2.1 3.639 6.931 5.971 14.352 6.949 0.028 0.669 0.293 1.296 0.771 1.774C26.083 94.722 26.754 95 27.466 95h45.068c1.434 0 2.598-1.138 2.66-2.557 7.42-0.976 12.251-3.31 14.351-6.949C91.188 82.648 91.098 79.061 89.279 74.833zM25.007 91.287c-0.253-0.033-0.511-0.064-0.759-0.101-1.237-2.674 0.18-5.095 0.867-6.032 1.08-1.469 2.457-2.294 3.372-2.388l1.297 6.891h-2.317C26.362 89.657 25.413 90.33 25.007 91.287zM25.332 59.651h24.669 24.668l-5.644 30.006H30.976L25.332 59.651zM72.534 93.827H27.466c-0.4 0-0.777-0.157-1.06-0.439-0.283-0.283-0.439-0.658-0.439-1.059 0-0.827 0.672-1.499 1.499-1.499h45.068c0.826 0 1.498 0.673 1.498 1.499C74.033 93.155 73.361 93.827 72.534 93.827zM75.728 91.189c-0.24 0.036-0.489 0.065-0.734 0.098-0.407-0.957-1.356-1.63-2.459-1.63h-2.317l1.296-6.889c0.913 0.103 2.278 0.929 3.348 2.387C75.551 86.092 76.966 88.513 75.728 91.189zM88.53 84.907c-1.692 2.933-5.631 5.007-11.462 6.062 0.678-2.103 0.242-4.464-1.26-6.508-1.172-1.596-2.742-2.658-4.078-2.839l0.308-1.635 7.254-2.855-0.43-1.092-2.166 0.854 3.58-3.199-0.781-0.875-7.343 6.561 3.932-20.903H50.001 23.917l3.933 20.903-7.343-6.561-0.781 0.875 3.58 3.199-2.168-0.854-0.429 1.092 7.256 2.855 0.306 1.631c-1.342 0.172-2.921 1.239-4.1 2.844-1.501 2.043-1.938 4.402-1.262 6.503-5.818-1.057-9.748-3.127-11.437-6.056-1.448-2.508-1.337-5.742 0.328-9.612l7.438-15.985-0.531-0.247 0.537 0.236c3.936-8.924 6.948-9.879 18.157-13.431l1.863-0.593c0.944 0.672 1.586 1.034 1.614 1.049l0.565-1.028c-0.117-0.064-11.619-6.521-9.108-16.746C35.429 15.947 44.372 6.173 50.001 6.173c5.629 0 14.571 9.774 17.667 22.378 2.508 10.211-8.991 16.682-9.108 16.746l0.565 1.028c0.028-0.015 0.657-0.369 1.588-1.03l1.962 0.623c11.16 3.534 14.16 4.484 18.086 13.382l0.536-0.236-0.531 0.247 7.437 15.985C89.867 79.166 89.977 82.4 88.53 84.907z" fill="#89939e" data-fill-palette-color="accent"></path><polygon points="50.001,54.415 44.799,49.605 44.003,50.466 50.001,56.013 55.998,50.466 55.202,49.605  " fill="#89939e" data-fill-palette-color="accent"></polygon></g></svg></g></svg></g></svg></g></svg></g></svg></g><defs></defs></svg><rect width="320" height="360" fill="none" stroke="none" visibility="hidden"></rect></g></svg></g></svg>